<svg width="266" height="30" viewBox="0 0 266 30" fill="none" xmlns="http://www.w3.org/2000/svg">
<path fill-rule="evenodd" clip-rule="evenodd" d="M33.0625 18.6193L33.2012 19.599L33.7097 20.3925L34.5418 20.9521L34.7267 21.0453L35.0966 21.1393L35.6975 21.279L36.2523 21.3721L36.6221 21.4653L36.807 21.5585L37.2693 21.7457L37.5004 21.9785V22.7254L37.3617 23.0057L37.0382 23.0989L36.8532 23.192L36.5297 23.2385H33.5248V24.7323H36.6221L37.5929 24.6383L38.3788 24.4519L38.7948 24.2648L39.4883 23.7051L39.9968 22.8651L40.2279 21.8388L40.2741 21.6991V20.766L40.043 20.2063L39.627 19.7388L39.2109 19.3197L38.7486 19.0394L38.1939 18.8998L37.2231 18.6661L36.7146 18.5265L36.6221 18.48L36.2523 18.3393L36.1136 18.1065V17.8262V17.4062L36.391 17.1733H39.3496V15.7271H36.0673L35.1428 15.8667L34.3107 16.2867L34.1257 16.3799L33.4323 17.0802L33.1087 17.9668L33.0625 18.1531V18.386L33.0625 18.6193Z" fill="#6D6E70"/>
<path fill-rule="evenodd" clip-rule="evenodd" d="M43.4773 24.0993L44.1698 24.7037L45.184 24.8901L45.969 24.6572L46.6606 24.0529L47.1219 22.9828L47.9522 20.0987L48.5985 23.1226L48.7372 23.6347L48.9674 24.0529L49.3363 24.3788L49.7061 24.7038L50.1675 24.8435H50.8128H50.9977L51.7817 24.5641L52.4742 23.9597L52.8894 22.9828L54.9188 15.7263H53.1658L51.5515 22.2387L49.7061 15.7263H46.4303L47.0757 17.7267L45.8765 22.2387L44.0773 15.7263H40.9393L43.1084 23.169L43.2008 23.5416L43.3386 23.8666L43.4773 24.0993Z" fill="#6D6E70"/>
<path fill-rule="evenodd" clip-rule="evenodd" d="M56.3616 11.6936V12.3967L56.4079 12.6788L56.5466 12.9601L56.8239 13.5226L57.3324 13.8038H58.5344L58.9042 13.6631L59.2278 13.3353L59.5052 13.0066L59.6439 12.6313V11.6935L59.5052 11.2716L59.2278 10.9429L58.9042 10.6151L58.4882 10.4744H57.9334H57.4711L57.0551 10.6615L56.7777 10.9903L56.4541 11.3181L56.3616 11.6936Z" fill="#6D6E70"/>
<path fill-rule="evenodd" clip-rule="evenodd" d="M56.3616 15.6147H59.4682V24.6667H56.3616V15.6147Z" fill="#6D6E70"/>
<path fill-rule="evenodd" clip-rule="evenodd" d="M61.4652 18.6194L61.6048 19.5991L62.118 20.3926L62.9575 20.9522L63.1442 21.0455L63.5178 21.1394L64.1234 21.2791L64.6836 21.3723L65.0562 21.4655L65.243 21.5586L65.7099 21.7458L65.9429 21.9786V22.7255L65.7561 23.0058L65.476 23.099L65.2902 23.1922L64.9629 23.2387H61.9312V24.7324H65.0562L66.0363 24.6384L66.8287 24.452L67.2484 24.2649L67.9483 23.7052L68.4614 22.8652L68.6944 21.8389V21.6993L68.7416 21.4654V20.766L68.5077 20.2063L68.0417 19.7388L67.6682 19.3197L67.2022 19.0394L66.5957 18.8998L65.6628 18.6661L65.1496 18.5265L65.0562 18.48L64.6836 18.3393L64.5431 18.1065V17.8262V17.4061L64.8233 17.1733H67.8087V15.7271H64.4969L63.564 15.8667L62.7245 16.2867L62.4915 16.3799L61.8388 17.0802L61.5115 17.9668L61.4652 18.1531V18.386L61.4652 18.6194Z" fill="#6D6E70"/>
<path fill-rule="evenodd" clip-rule="evenodd" d="M69.7864 18.6194L69.926 19.5991L70.4391 20.3926L71.2786 20.9522L71.4654 21.0455L71.8389 21.1394L72.4445 21.2791L73.0048 21.3723L73.3774 21.4655L73.5641 21.5586L74.031 21.7458L74.264 21.9786V22.7255L74.0773 23.0058L73.7971 23.099L73.6113 23.1922L73.284 23.2387H70.2524V24.7324H73.3774L74.3574 24.6384L75.1498 24.452L75.5695 24.2649L76.2694 23.7052L76.7826 22.8652L77.0155 21.8389V21.6993L77.0627 21.4654V20.766L76.8288 20.2063L76.3628 19.7388L75.9893 19.3197L75.5233 19.0394L74.9168 18.8998L73.9839 18.6661L73.4708 18.5265L73.3774 18.48L73.0048 18.3393L72.8642 18.1065V17.8262V17.4061L73.1444 17.1733H76.1298V15.7271H72.818L71.8851 15.8667L71.0456 16.2867L70.8126 16.3799L70.1599 17.0802L69.8326 17.9668L69.7864 18.1531V18.386L69.7864 18.6194Z" fill="#6D6E70"/>
<path d="M78.2739 19.0232H85.1527" stroke="#6D6E70" stroke-width="3.04" stroke-miterlimit="10" stroke-linejoin="round"/>
<path fill-rule="evenodd" clip-rule="evenodd" d="M92.8636 24.5457L92.1785 21.519L91.8133 22.5435L91.1735 23.1488L90.3053 23.3816L91.3103 24.7319H91.9501L92.8636 24.5457Z" fill="#6D6E70"/>
<path fill-rule="evenodd" clip-rule="evenodd" d="M91.4017 17.6543L91.8584 18.3062L92.133 19.2375L92.2236 20.4016L92.1783 21.5191L92.8634 24.5457L93.6862 24.1267L94.4166 23.6145L94.7366 23.242L95.1933 22.4504L95.5132 21.5657L95.6047 20.5413L95.5585 19.8894L95.3764 19.0047L95.0565 18.12L95.0111 17.9803L94.4629 17.1887L93.7768 16.5834L92.9549 16.1178L92.0414 15.885L90.9449 15.7918H89.8484V10.2507H86.6503V24.732H91.3101L90.3051 23.3816L90.0767 23.3352H89.8483V17.0957L90.3513 17.1421L90.625 17.1886L90.8987 17.3282L91.1732 17.5143L91.4017 17.6543Z" fill="#6D6E70"/>
<path fill-rule="evenodd" clip-rule="evenodd" d="M99.8494 19.4672V17.3886L100.125 17.1121H103.063V15.7263H98.1048L97.6462 15.8184L97.3244 16.0959L97.2329 16.1416L96.7734 16.881L96.6356 17.8971V22.7462L96.8196 23.7622L97.416 24.4085L97.8292 24.6395L98.334 24.7316H103.246V23.2546H100.033L99.8494 23.0237V20.9451H102.879V19.4671L99.8494 19.4672Z" fill="#6D6E70"/>
<path fill-rule="evenodd" clip-rule="evenodd" d="M109.95 24.7322V23.2059H108.262L108.075 23.1126L107.981 22.9738L107.794 22.6963L107.747 22.28V10.2507H104.513V21.7249V22.3722L104.794 23.2513L105.31 23.9916L105.872 24.3623L106.763 24.6398L107.934 24.732L109.95 24.7322Z" fill="#6D6E70"/>
<path fill-rule="evenodd" clip-rule="evenodd" d="M118.668 15.8384H115.421V18.9256H113.659V15.8384H110.504V24.733H113.659V20.4463H115.421V24.733H118.668V15.8384Z" fill="#6D6E70"/>
<path fill-rule="evenodd" clip-rule="evenodd" d="M125.26 23.1841L124.844 23.6031H124.243L123.642 23.3703L123.226 22.5777L123.088 21.1799L122.256 24.5828L123.18 24.8622L124.197 24.9554L125.029 24.9089L125.26 23.1841Z" fill="#6D6E70"/>
<path fill-rule="evenodd" clip-rule="evenodd" d="M121.47 24.1162L122.256 24.5828L123.088 21.1799V20.2011V19.5018L123.134 18.9421L123.18 18.5696V18.3832L123.596 17.3113L124.336 16.9844L124.567 17.0309L125.122 17.4509L125.445 18.3831L125.538 19.874V20.5269L125.492 21.6453L125.445 22.2982L125.26 23.1838L125.029 24.9085L125.954 24.6757L126.786 24.2557L127.526 23.6494L128.127 22.9044L128.589 22.0653L128.82 21.1797L128.913 20.2009V19.5946L128.82 19.0359L128.635 18.5228L128.358 17.9165L127.849 17.1715L127.156 16.5186L126.324 16.0521L125.723 15.8192L125.122 15.7261H124.521H123.827L122.949 15.9589L122.071 16.3789L121.331 16.9377L121.146 17.0773L120.499 17.8232L120.037 18.6623L119.759 19.548L119.713 20.5267V20.6199L119.806 21.5521L120.129 22.4377L120.638 23.2768L120.776 23.463L121.47 24.1162Z" fill="#6D6E70"/>
<path fill-rule="evenodd" clip-rule="evenodd" d="M131.948 24.7325H135.085V17.4508H137.529V15.8379H129.365V17.4508H131.948V24.7325Z" fill="#6D6E70"/>
<path fill-rule="evenodd" clip-rule="evenodd" d="M141.899 19.4672V17.3886L142.174 17.1121H145.113V15.7263H140.154L139.696 15.8184L139.374 16.0959L139.282 16.1416L138.823 16.881L138.685 17.8971V22.7462L138.869 23.7622L139.465 24.4085L139.833 24.6395L140.384 24.7316H145.296V23.2546H142.083L141.899 23.0237V20.9451H144.929V19.4671L141.899 19.4672Z" fill="#6D6E70"/>
<path fill-rule="evenodd" clip-rule="evenodd" d="M151.953 24.7322V23.2059H150.315L150.133 23.1126L150.041 22.9738L149.859 22.6963L149.814 22.28V10.2507H146.673V21.7249V22.3722L146.947 23.2513L147.447 23.9916L147.993 24.3623L148.858 24.6398L149.996 24.732L151.953 24.7322Z" fill="#6D6E70"/>
<path fill-rule="evenodd" clip-rule="evenodd" d="M159.211 11.4606V12.1581L159.256 12.4375L159.392 12.7169L159.664 13.2756L160.162 13.555H161.341L161.703 13.4154L162.02 13.0894L162.292 12.7635L162.428 12.391V11.4606L162.292 11.0416L162.02 10.7165L161.703 10.3906L161.296 10.251H160.796H160.298L159.89 10.4373L159.618 10.7623L159.301 11.0883L159.211 11.4606Z" fill="#6D6E70"/>
<path fill-rule="evenodd" clip-rule="evenodd" d="M159.211 15.2795H162.428V24.3315H159.211V15.2795Z" fill="#6D6E70"/>
<path fill-rule="evenodd" clip-rule="evenodd" d="M165.972 24.3041V18.9242L169.012 23.5154L169.426 24.1188L169.887 24.4429H170.531L170.716 24.3972L171.13 24.304L171.361 24.0723L171.498 23.655L171.591 23.4232L171.637 23.0517V15.3072H169.933V19.6199L167.63 16.1882L167.584 16.1417L166.847 15.3995L166.065 15.1677H165.88L165.558 15.2142L164.913 15.5858L164.452 16.3736L164.314 17.533V24.3043L165.972 24.3041Z" fill="#6D6E70"/>
<path fill-rule="evenodd" clip-rule="evenodd" d="M175.031 24.3965H178.21V17.0246H180.688V15.3911H172.414V17.0246H175.031V24.3965Z" fill="#6D6E70"/>
<path fill-rule="evenodd" clip-rule="evenodd" d="M185.08 19.0666V16.9628L185.357 16.6825H188.316V15.2791H183.323L182.861 15.373L182.537 15.6533L182.445 15.6998L181.983 16.4486L181.844 17.4767V22.3854L182.029 23.4145L182.63 24.0692L183 24.303L183.554 24.3962H188.501V22.9006H185.265L185.08 22.667V20.5632H188.085V19.0667L185.08 19.0666Z" fill="#6D6E70"/>
<path fill-rule="evenodd" clip-rule="evenodd" d="M189.61 24.3961H192.8V16.5949H193.031L193.956 16.9711L194.372 17.9107V18.1929V18.6632L194.279 19.0385L194.048 19.3207L193.725 19.6494L193.494 19.8376L193.216 20.0259L192.985 20.1198H192.846L194.788 24.3963H198.44L195.713 20.3545L196.036 20.2138L196.36 20.0731L196.637 19.8374L197.146 19.4146L197.423 18.8977L197.377 17.9581L197.331 17.3937L197.192 16.8769L196.915 16.4541L196.452 15.9838L195.713 15.561L194.742 15.3263L193.54 15.2788H189.611L189.61 24.3961Z" fill="#6D6E70"/>
<path fill-rule="evenodd" clip-rule="evenodd" d="M200.81 24.3041V18.9242L203.895 23.5154L204.264 24.1188L204.725 24.4429H205.369L205.554 24.3972L205.968 24.304L206.198 24.0723L206.336 23.655L206.428 23.4232L206.475 23.0517V15.3072H204.771V19.6199L202.468 16.1882L202.421 16.1417L201.731 15.3995L200.902 15.1677H200.717L200.396 15.2142L199.75 15.5858L199.29 16.3736L199.152 17.533V24.3043L200.81 24.3041Z" fill="#6D6E70"/>
<path fill-rule="evenodd" clip-rule="evenodd" d="M208.874 24.3965L209.378 22.7565L209.745 21.3987L210.615 18.5406L210.708 18.3535L210.891 18.2128L210.8 15.3081L210.112 15.9171L209.654 16.9481L207.362 24.3964L208.874 24.3965Z" fill="#6D6E70"/>
<path fill-rule="evenodd" clip-rule="evenodd" d="M211.853 21.3983H209.745L209.378 22.757H212.22L212.633 24.396H215.748L213.274 16.7606L212.999 16.1515L212.403 15.4018L211.532 15.1682L210.799 15.3089L210.891 18.2126L211.028 18.4008V18.6345L211.853 21.3983Z" fill="#6D6E70"/>
<path fill-rule="evenodd" clip-rule="evenodd" d="M218.725 24.3965H221.879V17.0246H224.338V15.3911H216.128V17.0246H218.725V24.3965Z" fill="#6D6E70"/>
<path fill-rule="evenodd" clip-rule="evenodd" d="M225.78 11.4606V12.1581L225.826 12.4375L225.964 12.7169L226.242 13.2756L226.75 13.555H227.952L228.368 13.4154L228.646 13.0894L228.923 12.7635L229.062 12.391V11.4606L228.923 11.0416L228.646 10.7165L228.322 10.3906L227.906 10.251H227.397H226.889L226.473 10.4373L226.195 10.7623L225.918 11.0883L225.78 11.4606Z" fill="#6D6E70"/>
<path fill-rule="evenodd" clip-rule="evenodd" d="M225.78 15.2795H228.997V24.3315H225.78V15.2795Z" fill="#6D6E70"/>
<path fill-rule="evenodd" clip-rule="evenodd" d="M236.209 22.737L235.793 23.1561H235.192L234.591 22.9233L234.175 22.1307L233.99 20.7329L233.204 24.1358L234.128 24.4152L235.145 24.5084L235.977 24.4619L236.209 22.737Z" fill="#6D6E70"/>
<path fill-rule="evenodd" clip-rule="evenodd" d="M232.418 23.6694L233.204 24.136L233.99 20.7331L234.036 19.7543V19.055L234.082 18.4953L234.128 18.1228V17.9364L234.498 16.8645L235.284 16.5377L235.515 16.5841L236.07 17.0041L236.393 17.9363L236.486 19.4273V20.0801L236.44 21.1986L236.394 21.8514L236.209 22.737L235.978 24.4617L236.902 24.2289L237.734 23.8089L238.474 23.2026L239.075 22.4576L239.537 21.6185L239.768 20.7329L239.861 19.7541V19.1478L239.768 18.5891L239.583 18.076L239.306 17.4697L238.798 16.7247L238.104 16.0719L237.226 15.6053L236.671 15.3725L236.07 15.2793H235.469H234.776L233.897 15.5121L233.019 15.9321L232.279 16.4909L232.094 16.6305L231.447 17.3765L230.985 18.2155L230.708 19.1012L230.662 20.0799V20.1731L230.754 21.1054L231.078 21.991L231.586 22.8301L231.725 23.0162L232.418 23.6694Z" fill="#6D6E70"/>
<path fill-rule="evenodd" clip-rule="evenodd" d="M243.318 23.7453V18.3653L246.384 22.9565L246.802 23.56L247.267 23.8841H247.917L248.103 23.8384L248.521 23.7452L248.8 23.5134L248.893 23.0962L248.986 22.8644L249.032 22.4928V14.7484H247.314V19.0611L244.99 15.6294L244.944 15.5829L244.247 14.8407L243.41 14.6089H243.225L242.9 14.6554L242.249 15.0269L241.785 15.8148L241.645 16.9742V23.7455L243.318 23.7453Z" fill="#6D6E70"/>
<path fill-rule="evenodd" clip-rule="evenodd" d="M251.443 23.7263L251.909 22.1068L252.283 20.7639L253.17 17.9412L253.263 17.7559L253.45 17.6171L253.356 14.7478L252.657 15.3494L252.19 16.3673L249.855 23.7262L251.443 23.7263Z" fill="#6D6E70"/>
<path fill-rule="evenodd" clip-rule="evenodd" d="M254.43 20.7645H252.282L251.909 22.1065H254.804L255.271 23.7269H258.399L255.877 16.1826L255.597 15.5811L254.991 14.8407L254.15 14.6089L253.357 14.7478L253.45 17.6179L253.59 17.8025L253.637 18.0342L254.43 20.7645Z" fill="#6D6E70"/>
<path fill-rule="evenodd" clip-rule="evenodd" d="M264.787 23.7263L264.833 22.1999H263.18L262.996 22.1068L262.859 21.9679L262.722 21.6904L262.676 21.2741V9.24487H259.508V20.7191V21.3663L259.784 22.2454L260.288 22.9858L260.839 23.3564L261.711 23.634L262.859 23.7261L264.787 23.7263Z" fill="#6D6E70"/>
<path fill-rule="evenodd" clip-rule="evenodd" d="M1.22034 5.3335V28.8016H3.541L4.60888 28.7551L5.6296 28.6155L6.60502 28.3826L7.57952 28.0567L8.50778 27.6376L9.38983 27.1254L10.2256 26.5666L10.9681 25.9147L11.7105 25.2163L12.3605 24.4247L12.9171 23.5866L13.4746 22.7019L13.8925 21.7706L14.2632 20.7927L14.5424 19.7684L14.7273 18.7439L14.8207 17.6264V17.0677H5.81543V16.0898L5.9088 15.112L6.00127 14.1807L6.14088 13.2029L6.37296 12.3181L6.55785 11.3869L6.83708 10.4556L7.1616 9.57093L7.48704 8.73277L7.90403 7.89462L8.32193 7.05646L8.73984 6.21834L9.2502 5.42675L9.34358 5.33358L1.22034 5.3335Z" fill="#F04E2F"/>
<path fill-rule="evenodd" clip-rule="evenodd" d="M23.7986 17.0443L23.7524 18.0203L23.7062 18.9497L23.6146 19.9257L23.4307 20.8551L23.2458 21.7845L23.0155 22.7139L22.7853 23.5967L22.4636 24.4796L22.0956 25.3624L21.7267 26.1996L21.3125 27.0359L20.8521 27.8256L20.3916 28.6153L20.2992 28.755H28.3568V5.3335H26.0546L24.996 5.37998L23.9826 5.51959L23.0155 5.75141L22.0494 6.07639L21.1285 6.49454L20.2539 7.00582L19.4245 7.56363L18.6886 8.2146L17.9517 8.91118L17.3073 9.70184L16.7544 10.5381L16.2024 11.421L15.7882 12.3504L15.4193 13.3263L15.1428 14.3023L14.9589 15.3714L14.8673 16.4396V17.044L23.7986 17.0443Z" fill="#F04E2F"/>
<path fill-rule="evenodd" clip-rule="evenodd" d="M28.4027 3.28921L28.6393 4.26517L28.5922 3.28921L28.8289 2.26669L29.587 1.61664L30.4395 1.38486L31.4343 1.61664L32.1453 2.35982L32.382 3.19608L32.5715 3.38246V3.19608L32.2868 2.22105L31.6239 1.47695L30.629 1.19849H30.4395L29.4446 1.43131L28.6865 2.12792L28.4026 3.10295L28.4027 3.28921Z" fill="#6D6E70"/>
<path fill-rule="evenodd" clip-rule="evenodd" d="M28.5921 3.28917L28.6392 4.26513L29.3502 4.96174L30.3451 5.28677H30.5346L31.5294 5.05499L32.2395 4.35745L32.5714 3.38242L32.3819 3.19604L32.0971 4.172L31.3871 4.86862L30.5346 5.10144L29.4917 4.86862L28.8288 4.12544L28.5921 3.28917Z" fill="#6D6E70"/>
<path fill-rule="evenodd" clip-rule="evenodd" d="M31.0654 3.91724V4.09967L31.1098 4.32774H31.4648L31.376 4.05399L31.3317 3.82588V3.59781L31.2873 3.32403L31.1098 3.18699L31.2873 3.05L31.3761 2.86757L31.4204 2.6403L31.3317 2.32088L31.1098 2.13821L30.7991 2.09253L30.0003 2.3206H30.666L30.9323 2.36628L31.1098 2.59434V2.82165L30.9766 3.41486L31.0654 3.64297L31.0654 3.91724Z" fill="#6D6E70"/>
<path fill-rule="evenodd" clip-rule="evenodd" d="M31.1098 2.82237L30.9323 3.05044L30.7548 3.09612H30.0003V2.32035L30.7992 2.09229H29.734V4.32733H30.0003V3.32435H30.7104L30.9767 3.4157L31.1098 2.82237Z" fill="#6D6E70"/>
</svg>
