<svg width="176" height="45" viewBox="0 0 176 45" fill="none" xmlns="http://www.w3.org/2000/svg">
<g clip-path="url(#clip0_14_178)">
<path d="M92.7875 14.707H99.35L104.272 27.9688H104.409L108.92 14.707H114.936L107.28 34.2578H100.854L92.7875 14.707Z" fill="#37474D"/>
<path d="M69.2719 19.4922H63.3929V25.918C63.3929 26.4648 63.3929 26.875 63.5297 27.4219C63.5297 27.832 63.6664 28.2422 63.9398 28.5156C64.0765 28.7891 64.4867 29.0625 64.8969 29.1992C65.307 29.3359 65.8539 29.4727 66.5375 29.4727C66.9476 29.4727 67.3578 29.4727 67.9047 29.3359C68.4515 29.3359 68.8617 29.0625 69.2719 28.9258V33.9844C68.5883 34.2578 67.7679 34.3945 66.9476 34.5312C66.1273 34.668 65.4437 34.668 64.6234 34.668C63.5297 34.668 62.4359 34.5312 61.4789 34.3945C60.5219 34.1211 59.7015 33.8477 59.0179 33.4375C58.3344 33.0273 57.7875 32.3438 57.3773 31.6602C56.9672 30.9766 56.8304 30.0195 56.8304 28.9258V19.6289H52.5922V14.8437H56.8304V8.96484H63.3929V14.707H69.2719V19.4922Z" fill="#37474D"/>
<path d="M71.0492 14.707H77.0648V17.8516C77.7484 16.6211 78.432 15.8008 79.389 15.1172C80.2094 14.5703 81.4398 14.1602 82.6703 14.1602C83.0804 14.1602 83.3539 14.1602 83.764 14.1602C84.1742 14.1602 84.4476 14.2969 84.7211 14.2969V19.7656C84.3109 19.6289 83.9008 19.4922 83.4906 19.4922C83.0804 19.4922 82.6703 19.3555 82.1234 19.3555C81.0297 19.3555 80.0726 19.4922 79.389 19.9023C78.7054 20.1758 78.1586 20.7227 77.8851 21.2695C77.475 21.8164 77.3383 22.5 77.2015 23.3203C77.0648 24.1406 77.0648 24.9609 77.0648 25.918V33.9844H71.0492V14.707Z" fill="#37474D"/>
<path d="M89.0961 12.793C89.9164 12.793 90.7367 12.5195 91.2836 11.8359C91.9672 11.1523 92.2406 10.4687 92.2406 9.64844C92.2406 8.82812 91.9672 8.00781 91.2836 7.46094C90.6 6.77734 89.9164 6.50391 89.0961 6.50391C88.2758 6.50391 87.4554 6.77734 86.9086 7.46094C86.225 8.14453 85.9515 8.82812 85.9515 9.64844C85.9515 10.4687 86.225 11.2891 86.9086 11.8359C87.4554 12.3828 88.139 12.793 89.0961 12.793Z" fill="#37474D"/>
<path d="M92.1039 14.707H86.0883V34.1211H92.1039V14.707Z" fill="#37474D"/>
<path d="M125.19 25.6445C124.78 25.6445 124.233 25.6445 123.549 25.6445C122.866 25.6445 122.182 25.7812 121.635 25.918C120.952 26.0547 120.405 26.3281 119.995 26.7383C119.584 27.1484 119.311 27.6953 119.311 28.2422C119.311 28.9258 119.584 29.4727 120.268 29.8828C120.815 30.293 121.498 30.4297 122.182 30.4297C122.729 30.4297 123.276 30.293 123.823 30.1562C124.37 30.0195 124.916 29.7461 125.327 29.4727C125.737 29.1992 126.147 28.7891 126.284 28.3789C126.557 27.9687 126.694 27.4219 126.694 26.7383V25.5078H125.19V25.6445ZM126.557 31.7969C125.873 32.8906 124.916 33.5742 123.823 33.9844C122.729 34.3945 121.498 34.668 120.268 34.668C119.311 34.668 118.491 34.5312 117.67 34.2578C116.85 33.9844 116.03 33.5742 115.483 33.1641C114.799 32.6172 114.389 32.0703 113.979 31.25C113.569 30.5664 113.432 29.6094 113.432 28.6523C113.432 27.5586 113.705 26.6016 114.116 25.7812C114.526 24.9609 115.073 24.4141 115.756 23.8672C116.44 23.3203 117.26 22.9102 118.217 22.6367C119.174 22.3633 120.131 22.0898 121.088 21.9531C122.045 21.8164 123.002 21.6797 123.959 21.6797C124.916 21.6797 125.873 21.6797 126.694 21.6797C126.694 20.5859 126.284 19.7656 125.6 19.082C124.78 18.3984 123.959 18.125 122.866 18.125C121.909 18.125 120.952 18.3984 120.131 18.8086C119.311 19.2188 118.627 19.7656 117.944 20.4492L114.799 17.168C115.893 16.0742 117.26 15.3906 118.764 14.8437C120.268 14.2969 121.772 14.0234 123.412 14.0234C125.19 14.0234 126.557 14.2969 127.787 14.707C128.881 15.1172 129.838 15.8008 130.522 16.6211C131.205 17.4414 131.616 18.5352 131.889 19.7656C132.162 20.9961 132.299 22.5 132.299 24.0039V33.8477H126.83V31.7969H126.557Z" fill="#37474D"/>
<path d="M173.452 20.3125C172.905 19.082 172.221 17.9883 171.401 17.0312C170.58 16.0742 169.487 15.3906 168.256 14.9805C167.026 14.4336 165.795 14.2969 164.428 14.2969C163.061 14.2969 161.83 14.5703 160.6 14.9805C159.37 15.5273 158.412 16.2109 157.455 17.0312C156.635 17.9883 155.815 18.9453 155.405 20.3125C154.858 21.543 154.584 22.9102 154.584 24.5508C154.584 26.1914 154.858 27.5586 155.405 28.7891C155.952 30.0195 156.635 31.1133 157.455 32.0703C158.276 33.0273 159.37 33.7109 160.6 34.1211C161.83 34.668 163.061 34.8047 164.428 34.8047C165.795 34.8047 167.026 34.5312 168.256 34.1211C169.487 33.7109 170.444 32.8906 171.401 32.0703C172.221 31.1133 173.041 30.1563 173.452 28.7891C173.998 27.5586 174.272 26.1914 174.272 24.5508C174.272 22.9102 173.998 21.543 173.452 20.3125ZM167.709 27.9688C166.889 28.9258 165.932 29.3359 164.565 29.3359C163.198 29.3359 162.104 28.9258 161.42 27.9688C160.6 27.0117 160.327 25.918 160.327 24.4141C160.327 22.9102 160.737 21.8164 161.42 20.8594C162.241 19.9023 163.198 19.4922 164.565 19.4922C165.932 19.4922 167.026 19.9023 167.709 20.8594C168.53 21.8164 168.803 22.9102 168.803 24.4141C168.803 25.918 168.393 27.1484 167.709 27.9688Z" fill="#37474D"/>
<path d="M148.159 14.8437V17.4414C148.159 17.4414 147.748 16.7578 147.338 16.4844C146.928 16.0742 146.518 15.8008 145.834 15.5273C145.287 15.2539 144.604 14.9805 143.92 14.8437C143.237 14.707 142.416 14.5703 141.596 14.5703C140.229 14.5703 138.998 14.8438 137.905 15.3906C136.811 15.9375 135.854 16.6211 135.17 17.7148C134.487 18.6719 134.077 19.6289 133.803 20.9961C133.53 22.2266 133.393 23.457 133.393 24.8242C133.393 26.3281 133.666 27.6953 133.94 28.9258C134.35 30.1563 134.76 31.1133 135.444 32.0703C136.264 33.0273 137.358 33.7109 138.452 34.1211C139.682 34.668 140.912 34.8047 142.416 34.8047C143.373 34.8047 144.33 34.5313 145.287 34.2578C146.381 33.8477 147.338 33.1641 147.612 32.207V34.1211C147.612 35.4883 147.338 36.582 146.518 37.5391C145.698 38.4961 144.467 38.9063 142.553 38.9063C141.323 38.9063 140.502 38.9062 139.272 38.6328C138.178 38.3594 136.811 37.8125 135.854 37.1289L132.983 41.3672C134.487 42.4609 135.991 43.1445 137.631 43.6914C139.272 44.1016 141.049 44.2383 142.69 44.2383C146.518 44.2383 149.252 43.2812 151.03 41.3672C152.944 39.4531 153.627 36.7188 153.627 33.0273V14.8437H148.159ZM146.791 27.9688C145.971 28.9258 145.014 29.3359 143.647 29.3359C142.28 29.3359 141.186 28.9258 140.502 27.9688C139.682 27.0117 139.409 25.918 139.409 24.4141C139.409 22.9102 139.819 21.8164 140.502 20.8594C141.323 19.9023 142.28 19.4922 143.647 19.4922C145.014 19.4922 146.108 19.9023 146.791 20.8594C147.612 21.8164 147.885 22.9102 147.885 24.4141C147.885 25.918 147.475 27.1484 146.791 27.9688Z" fill="#37474D"/>
<path d="M17.182 37.8125C-0.181271 29.0625 2.41638 13.4766 6.9281 6.50391C5.69763 7.73438 4.60388 9.10156 3.51013 10.6055C2.27967 12.6562 -0.728146 18.2617 1.0492 25.2344C2.68982 32.207 7.6117 36.9922 11.5765 39.5898C17.8656 43.6914 24.0179 44.6484 28.2562 44.375C34.682 43.9648 38.9203 40.2734 41.1078 36.8555C42.3383 34.8047 43.0219 32.8906 43.1586 32.207C42.475 33.1641 34.2719 46.2891 17.182 37.8125Z" fill="#C93F1F"/>
<path d="M28.8031 37.4023C28.5297 37.4023 28.2562 37.4023 27.8461 37.5391C24.2914 37.5391 20.3265 36.3086 17.5922 34.9414C15.5414 33.8477 12.807 32.0703 10.7562 29.3359C0.502315 16.0742 13.9008 2.53906 17.5922 0.898438C16.9086 1.03516 16.0883 1.17188 15.1312 1.44531C12.9437 2.12891 9.79919 3.76953 6.9281 6.50391C6.51794 7.05078 6.10778 7.73438 5.69763 8.28125C4.33044 10.332 1.59606 15.6641 3.09997 22.5C4.7406 29.3359 9.52575 33.9844 13.3539 36.4453C19.5062 40.5469 25.3851 41.3672 29.6234 41.0938C35.9125 40.6836 40.014 36.9922 42.0648 33.8477C42.475 33.3008 42.7484 32.7539 43.0218 32.207C43.0218 31.9336 43.1586 31.7969 43.1586 31.7969C43.2953 31.25 43.432 30.1562 43.5687 29.8828C43.9789 27.1484 43.7054 24.4141 43.2953 22.0898C42.6117 26.875 38.7836 36.4453 28.8031 37.4023Z" fill="#F39200"/>
<path d="M40.014 13.75C39.6039 13.0664 39.057 12.2461 39.057 12.1094C38.5101 11.4258 37.9633 10.6055 37.5531 10.0586C36.4594 8.69145 34.5453 8.55473 33.1781 9.64848C31.8109 10.7422 31.6742 12.6563 32.6312 14.0235C33.8617 15.5274 34.5453 16.7579 35.3656 18.6719C35.7758 19.4922 36.4594 21.4063 36.8695 23.7305C37.1429 25.7813 37.4164 29.8829 35.2289 33.1641C34.5453 34.2579 32.7679 36.5821 29.35 37.2657C29.2133 37.2657 28.9398 37.4024 28.6664 37.4024C29.0765 37.4024 29.35 37.4024 29.7601 37.4024C35.2289 36.9922 38.9203 33.8477 40.6976 30.9766C42.0648 28.7891 42.6117 26.6016 42.6117 26.6016C42.7484 26.0547 42.8851 25.2344 42.8851 24.961C43.0219 24.0039 43.1586 23.0469 43.0219 22.0899C42.7484 20.9961 42.6117 20.0391 42.3383 19.2188C41.9281 17.168 40.9711 15.3907 40.014 13.75Z" fill="#007DB0"/>
<path d="M9.38904 26.7383C8.97889 25.7812 8.56873 24.6875 8.29529 23.5937C7.88514 22.0898 7.74842 17.9883 10.0726 14.5703C12.6703 10.8789 15.5414 8.55469 22.2406 8.41797C24.4281 8.41797 26.0687 7.32422 26.3422 5.13672C26.6156 2.94922 25.1117 1.03516 22.7875 0.761719C21.9672 0.625 21.1469 0.625 20.3265 0.625C20.3265 0.625 19.2328 0.625 17.5922 0.898438C14.8578 1.99219 11.1664 4.45312 8.70545 8.41797C7.6117 10.1953 5.01404 14.8437 6.51795 20.9961C7.33826 24.4141 8.97889 27.1484 10.8929 29.3359C10.3461 28.5156 9.7992 27.6953 9.38904 26.7383Z" fill="#007DB0"/>
</g>
<defs>
<clipPath id="clip0_14_178">
<rect width="175" height="43.75" fill="white" transform="translate(0.502319 0.625)"/>
</clipPath>
</defs>
</svg>
