<svg width="176" height="55" viewBox="0 0 176 55" fill="none" xmlns="http://www.w3.org/2000/svg">
<path d="M92.7313 13.8603C92.7313 15.8363 91.1458 17.4281 89.1777 17.4281C87.2096 17.4281 85.6241 15.8363 85.6241 13.8603C85.6241 11.8843 87.1549 10.2926 89.1777 10.2926C91.2005 10.3475 92.7313 11.9392 92.7313 13.8603ZM78.0796 21.0507C78.0796 21.38 78.0796 21.9289 78.0796 21.9289C78.0796 21.9289 76.3848 19.7334 72.7766 19.7334C66.8175 19.7334 62.1705 24.2891 62.1705 30.6012C62.1705 36.8585 66.7628 41.4691 72.7766 41.4691C76.4395 41.4691 78.0796 39.2187 78.0796 39.2187V40.1518C78.0796 40.5909 78.4076 40.9202 78.845 40.9202H83.2733V20.2822C83.2733 20.2822 79.2277 20.2822 78.845 20.2822C78.4076 20.2822 78.0796 20.6665 78.0796 21.0507ZM78.0796 34.2787C77.2596 35.4863 75.6195 36.5292 73.6513 36.5292C70.1524 36.5292 67.4736 34.3336 67.4736 30.6012C67.4736 26.8688 70.1524 24.6733 73.6513 24.6733C75.5648 24.6733 77.3142 25.7711 78.0796 26.9237V34.2787ZM86.5535 20.2822H91.8019V40.9202H86.5535V20.2822ZM164.951 19.7334C161.343 19.7334 159.648 21.9289 159.648 21.9289V10.3475H154.4V40.9202C154.4 40.9202 158.445 40.9202 158.828 40.9202C159.265 40.9202 159.593 40.536 159.593 40.1518V39.2187C159.593 39.2187 161.288 41.4691 164.896 41.4691C170.855 41.4691 175.502 36.8585 175.502 30.6012C175.502 24.344 170.855 19.7334 164.951 19.7334ZM164.076 36.4743C162.053 36.4743 160.468 35.4314 159.648 34.2238V26.8688C160.468 25.7711 162.217 24.6184 164.076 24.6184C167.575 24.6184 170.254 26.8139 170.254 30.5463C170.254 34.2787 167.575 36.4743 164.076 36.4743ZM151.666 28.6801V40.9751H146.418V29.2839C146.418 25.8808 145.324 24.5086 142.372 24.5086C140.787 24.5086 139.146 25.332 138.108 26.5395V40.9202H132.859V20.2822H137.014C137.452 20.2822 137.78 20.6665 137.78 21.0507V21.9289C139.31 20.3371 141.333 19.7334 143.356 19.7334C145.652 19.7334 147.566 20.392 149.096 21.7093C150.955 23.2462 151.666 25.2222 151.666 28.6801ZM120.121 19.7334C116.513 19.7334 114.818 21.9289 114.818 21.9289V10.3475H109.57V40.9202C109.57 40.9202 113.615 40.9202 113.998 40.9202C114.435 40.9202 114.763 40.536 114.763 40.1518V39.2187C114.763 39.2187 116.458 41.4691 120.066 41.4691C126.026 41.4691 130.673 36.8585 130.673 30.6012C130.727 24.344 126.08 19.7334 120.121 19.7334ZM119.246 36.4743C117.224 36.4743 115.638 35.4314 114.818 34.2238V26.8688C115.638 25.7711 117.388 24.6184 119.246 24.6184C122.745 24.6184 125.424 26.8139 125.424 30.5463C125.424 34.2787 122.745 36.4743 119.246 36.4743ZM105.032 19.7334C106.618 19.7334 107.438 20.0078 107.438 20.0078V24.8928C107.438 24.8928 103.064 23.4109 100.33 26.5395V40.9751H95.0821V20.2822C95.0821 20.2822 99.1277 20.2822 99.5104 20.2822C99.9478 20.2822 100.276 20.6665 100.276 21.0507V21.9289C101.26 20.7762 103.392 19.7334 105.032 19.7334ZM50.5257 39.054C50.2524 38.3954 49.979 37.6818 49.7057 37.078C49.2683 36.09 48.8309 35.1569 48.4482 34.2787L48.3936 34.2238C44.6213 25.9906 40.5757 17.6476 36.3114 9.41437L36.1474 9.08504C35.71 8.26172 35.2727 7.38351 34.8353 6.5053C34.2886 5.51731 33.7419 4.47443 32.8672 3.48644C31.1177 1.29091 28.6029 0.083374 25.924 0.083374C23.1905 0.083374 20.7304 1.29091 18.9262 3.37667C18.1062 4.36466 17.5048 5.40753 16.9581 6.39552C16.5207 7.27373 16.0834 8.15194 15.646 8.97527L15.482 9.30459C11.2724 17.5378 7.17209 25.8808 3.39983 34.1141L3.34516 34.2238C2.96247 35.1021 2.5251 36.0352 2.08774 37.0231C1.81439 37.6269 1.54104 38.2856 1.26768 38.9991C0.556968 41.03 0.338286 42.9511 0.611638 44.927C1.21301 49.0437 3.94653 52.5016 7.71879 54.0385C9.14022 54.6423 10.6163 54.9167 12.1471 54.9167C12.5845 54.9167 13.1312 54.8618 13.5685 54.8069C15.3727 54.5874 17.2314 53.9836 19.0356 52.9407C21.2771 51.6783 23.4092 49.867 25.8147 47.2324C28.2202 49.867 30.407 51.6783 32.5938 52.9407C34.398 53.9836 36.2567 54.5874 38.0609 54.8069C38.4982 54.8618 39.0449 54.9167 39.4823 54.9167C41.0131 54.9167 42.5438 54.6423 43.9106 54.0385C47.7375 52.5016 50.4164 48.9888 51.0178 44.927C51.4551 43.006 51.2364 41.0849 50.5257 39.054ZM25.8694 41.9082C22.9172 38.1758 21.0037 34.663 20.3477 31.699C20.0743 30.4366 20.0196 29.3388 20.1836 28.3508C20.293 27.4726 20.621 26.7042 21.0584 26.0455C22.0971 24.5635 23.8466 23.6304 25.8694 23.6304C27.8922 23.6304 29.6963 24.5086 30.6804 26.0455C31.1177 26.7042 31.4458 27.4726 31.5551 28.3508C31.7191 29.3388 31.6644 30.4914 31.3911 31.699C30.735 34.6081 28.8216 38.1209 25.8694 41.9082ZM47.6829 44.4879C47.3002 47.3421 45.3867 49.8121 42.7079 50.9099C41.3958 51.4587 39.9743 51.6234 38.5529 51.4587C37.1861 51.2941 35.8194 50.855 34.398 50.0317C32.4298 48.9339 30.4617 47.2324 28.1655 44.7075C31.7738 40.2616 33.9606 36.1998 34.7807 32.5772C35.1633 30.8757 35.218 29.3388 35.054 27.9117C34.8353 26.5395 34.3433 25.2771 33.5779 24.1793C31.8831 21.7093 29.0403 20.2822 25.8694 20.2822C22.6985 20.2822 19.8556 21.7642 18.1608 24.1793C17.3955 25.2771 16.9034 26.5395 16.6847 27.9117C16.4661 29.3388 16.5207 30.9306 16.9581 32.5772C17.7781 36.1998 20.0196 40.3164 23.5732 44.7624C21.3317 47.2872 19.3089 48.9888 17.3408 50.0865C15.9194 50.9099 14.5526 51.349 13.1858 51.5136C11.7097 51.6783 10.2883 51.4587 9.03088 50.9648C6.35203 49.867 4.43857 47.397 4.05587 44.5428C3.89186 43.1706 4.0012 41.7984 4.54791 40.2615C4.71192 39.7127 4.98527 39.1638 5.25862 38.5051C5.64132 37.6269 6.07868 36.6938 6.51604 35.7607L6.57071 35.6509C10.343 27.4726 14.3886 19.1296 18.5982 11.0061L18.7622 10.6768C19.1996 9.85348 19.6369 8.97527 20.0743 8.15194C20.5117 7.27373 21.0037 6.45041 21.6051 5.73686C22.7532 4.41954 24.2839 3.706 25.9787 3.706C27.6735 3.706 29.2043 4.41954 30.3523 5.73686C30.9537 6.45041 31.4458 7.27373 31.8831 8.15194C32.3205 8.97527 32.7578 9.85348 33.1952 10.6768L33.3592 11.0061C37.5142 19.1845 41.5598 27.5275 45.332 35.7058V35.7607C45.7694 36.6389 46.1521 37.6269 46.5895 38.5051C46.8628 39.1638 47.1362 39.7127 47.3002 40.2615C47.7375 41.6886 47.9016 43.0608 47.6829 44.4879Z" fill="#FF5A5F"/>
</svg>
