<svg width="176" height="24" viewBox="0 0 176 24" fill="none" xmlns="http://www.w3.org/2000/svg">
<path d="M14.4583 7.00442C14.4583 8.739 13.894 10.0503 12.7808 10.9038C11.6575 11.7641 9.92527 12.2006 7.6333 12.2006C7.19233 12.202 6.75149 12.1851 6.31194 12.1496C5.94344 12.1187 5.59344 12.0733 5.26965 12.0147V3.82744C5.26965 2.98173 5.48859 2.41819 5.91954 2.15299C6.37053 1.87545 7.2278 1.73515 8.46667 1.73515C10.3863 1.73515 11.8819 2.19693 12.9126 3.10739C13.9379 4.01554 14.4583 5.32689 14.4583 7.00442ZM15.0843 2.34032C13.288 1.21477 10.7617 0.644287 7.57471 0.644287C7.30952 0.644287 6.90093 0.652767 6.29035 0.673582C5.72449 0.692855 5.08617 0.722921 4.39388 0.762239L0.591675 0.968847V1.78911L0.709626 1.79451C1.15445 1.81224 1.46513 1.9988 1.65941 2.36345C1.86293 2.74737 1.96623 3.42347 1.96623 4.37402V19.6553C1.96623 20.5665 1.86293 21.2288 1.65864 21.6219C1.46513 21.9958 1.15522 22.1847 0.711939 22.1932L0.591675 22.1955V23.0165H6.64498V22.1955L6.52394 22.1932C6.07989 22.1855 5.76998 22.0005 5.57648 21.6358C5.37295 21.2527 5.26965 20.5866 5.26965 19.6545V13.1047C5.75148 13.1741 6.24256 13.2289 6.73132 13.269C7.26557 13.3137 7.81062 13.336 8.35027 13.336C11.3538 13.336 13.7043 12.7894 15.3356 11.7125C16.9839 10.6239 17.8195 9.06048 17.8195 7.06378C17.8195 5.06708 16.8991 3.47744 15.0843 2.34032Z" fill="black"/>
<path d="M35.0289 18.2423L34.177 17.957L34.1246 18.0318C33.6235 18.7426 33.1517 19.3347 32.7246 19.7918C32.3006 20.2436 31.8989 20.5789 31.5312 20.7879C30.9259 21.1276 30.2688 21.3652 29.5862 21.4909C28.8615 21.632 27.7105 21.7037 26.1656 21.7037C24.8935 21.7037 24.4063 21.5357 24.2205 21.3953C24.0432 21.2604 23.8312 20.8642 23.8312 19.7433V4.37332C23.8312 3.42354 23.9345 2.74667 24.138 2.36352C24.3331 1.9981 24.6438 1.81154 25.0878 1.7938L25.2058 1.78918V0.968144H19.0946V1.78918L19.2126 1.7938C19.6566 1.81154 19.9681 2.00273 20.1616 2.3774C20.3659 2.77211 20.47 3.44358 20.47 4.37409V19.6546C20.47 20.5658 20.3682 21.2257 20.1685 21.6151C19.9789 21.9851 19.6651 22.1616 19.2103 22.1886L19.0946 22.1956V23.0158H33.8679L35.0297 18.2423H35.0289ZM51.6092 20.794C52.0949 20.1434 52.4495 19.2838 52.663 18.2392C52.8735 17.2061 52.9799 15.6442 52.9799 13.5951V6.51726C52.9799 4.93455 53.1217 3.78433 53.4016 3.09898C53.6776 2.42365 54.1378 2.02277 54.8085 1.81616L54.8964 1.78918V0.968144H49.5886V1.78918L49.6927 1.80614C50.3772 1.91792 50.866 2.3111 51.1867 3.03577C51.5143 3.77354 51.6801 4.89601 51.6801 6.36925V13.5658C51.6801 15.8902 51.5413 17.5515 51.2684 18.5044C51.0001 19.4449 50.5283 20.1973 49.8692 20.7401C49.3445 21.1588 48.7425 21.4703 48.0976 21.6567C47.4308 21.854 46.6205 21.9543 45.69 21.9543C43.6995 21.9543 42.2748 21.447 41.4545 20.4479C40.6297 19.4411 40.211 17.6679 40.211 15.1771V4.37332C40.211 3.42354 40.3143 2.74667 40.5179 2.36352C40.7121 1.9981 41.0228 1.81154 41.4677 1.7938L41.5856 1.78918V0.968144H35.4745V1.78918L35.5924 1.7938C36.0365 1.81154 36.3472 2.00273 36.5414 2.3774C36.7457 2.77057 36.8498 3.44281 36.8498 4.37409V14.5711C36.8498 16.4051 36.9539 17.7705 37.1597 18.6277C37.3679 19.4935 37.7148 20.2428 38.1928 20.8557C38.8758 21.7068 39.7955 22.3683 40.9265 22.8216C42.052 23.2741 43.3649 23.5031 44.8273 23.5031C46.4054 23.5031 47.7669 23.2795 48.8724 22.837C49.9864 22.3914 50.9069 21.7045 51.6092 20.794ZM74.5604 19.9368C74.5797 20.0832 74.5943 20.2166 74.6035 20.3376C74.6136 20.4571 74.6182 20.5689 74.6182 20.6753C74.6182 21.1163 74.5072 21.4771 74.2875 21.7492C74.0693 22.019 73.7841 22.1601 73.4163 22.1871L73.3015 22.1948V23.0158H79.3548V22.1956L79.2576 22.174C78.8961 22.0938 78.5792 21.8163 78.3171 21.3105C78.0411 20.7832 77.8337 20.0462 77.7004 19.1211L75.6081 4.26308C75.5505 3.92823 75.5219 3.58906 75.5225 3.24931C75.5225 2.82762 75.6243 2.4861 75.8247 2.234C76.0221 1.98577 76.3065 1.84623 76.6727 1.80151L76.7806 1.78841V0.968144H72.0718L67.4825 18.0996L62.5764 0.968144H57.5923V1.78918L57.6702 1.82002C58.1404 2.00658 58.4758 2.21858 58.6647 2.51925C58.8559 2.82299 58.9522 3.27244 58.9522 3.8568C58.9522 4.18367 58.943 4.5144 58.9229 4.84667L58.9245 4.93224L56.9941 17.967C56.8114 19.2267 56.5092 20.2235 56.0952 20.9289C55.6912 21.6197 55.1778 22.0237 54.5711 22.1724L54.477 22.1956V23.0158H60.0323V22.1956L59.9305 22.1778C59.3577 22.0753 58.9368 21.8163 58.6454 21.3545C58.3525 20.8888 58.2044 20.232 58.2044 19.404C58.2044 19.192 58.216 18.9469 58.2407 18.6763C58.2638 18.4096 58.3 18.1135 58.3486 17.7959L60.2435 4.58224L65.741 23.2525H67.4339L72.3933 4.62233L74.5604 19.9368ZM123.81 20.794C124.296 20.1434 124.65 19.2838 124.864 18.2392C125.074 17.2061 125.18 15.6442 125.18 13.5951V6.51726C125.18 4.93455 125.323 3.78433 125.603 3.09898C125.878 2.42365 126.339 2.02277 127.009 1.81616L127.097 1.78918V0.968144H121.79V1.78918L121.893 1.80614C122.577 1.91792 123.066 2.3111 123.387 3.03577C123.715 3.77354 123.881 4.89601 123.881 6.36925V13.5658C123.881 15.8902 123.742 17.5515 123.469 18.5044C123.2 19.4449 122.729 20.1973 122.07 20.7401C121.545 21.1588 120.944 21.4703 120.299 21.6567C119.632 21.854 118.822 21.9543 117.89 21.9543C115.9 21.9543 114.475 21.447 113.656 20.4479C112.831 19.4411 112.411 17.6679 112.411 15.1771V4.37332C112.411 3.42354 112.515 2.74667 112.719 2.36352C112.912 1.9981 113.223 1.81154 113.668 1.7938L113.787 1.78918V0.968144H107.675V1.78918L107.793 1.7938C108.237 1.81154 108.547 2.00273 108.742 2.3774C108.946 2.77057 109.05 3.44281 109.05 4.37409V14.5711C109.05 16.4051 109.154 17.7705 109.36 18.6277C109.568 19.4935 109.915 20.2428 110.393 20.8557C111.076 21.7068 111.997 22.3683 113.127 22.8216C114.253 23.2741 115.565 23.5031 117.028 23.5031C118.606 23.5031 119.967 23.2795 121.073 22.837C122.187 22.3914 123.107 21.7045 123.81 20.794ZM105.827 20.1079C105.464 20.0894 105.188 19.9383 104.986 19.643C104.778 19.3401 104.671 18.9168 104.671 18.3841V11.8382C104.671 11.354 104.779 11.0418 104.993 10.7404C105.198 10.4474 105.455 10.3048 105.777 10.3048H105.9V9.48147H94.5173V10.3048C94.5173 10.3048 95.0107 10.3441 95.4386 10.3619C96.8671 10.4181 99.8251 10.4629 100.668 10.8691C101.2 11.1251 101.485 11.6771 101.485 12.2953V18.9315C101.485 19.9668 101.028 20.8094 100.127 21.437C99.2115 22.0745 97.9772 22.3976 96.4593 22.3976C94.1241 22.3976 92.3302 21.511 91.1268 19.761C89.9134 17.9994 89.2982 15.3775 89.2982 11.97C89.2982 8.63268 89.8918 6.05625 91.0613 4.31165C92.2215 2.58246 93.9237 1.70592 96.1232 1.70592C97.5918 1.70592 98.9447 2.15537 100.147 3.04193C101.351 3.93004 102.317 5.1959 103.017 6.80405L103.048 6.87343L103.738 6.91352L104.63 3.07508L104.556 3.02806C103.246 2.18929 101.953 1.55173 100.711 1.13081C99.4643 0.709884 98.2363 0.496338 97.0591 0.496338C95.5989 0.496338 94.1989 0.743034 92.8984 1.22872C91.5971 1.7144 90.4584 2.4144 89.5156 3.3079C88.2972 4.45276 87.335 5.84264 86.6924 7.3861C86.0549 8.92101 85.7319 10.6032 85.7319 12.384C85.7319 13.831 85.9508 15.2195 86.3817 16.5108C86.8142 17.8059 87.4317 18.9315 88.2189 19.8535C89.2588 21.0947 90.4222 22.0229 91.6765 22.6134C92.93 23.2039 94.367 23.5038 95.9474 23.5038C97.443 23.5038 99.0288 23.2733 100.661 22.82C102.289 22.3667 104.048 21.6629 105.891 20.7277L105.962 20.6915L105.939 20.1133L105.827 20.1079ZM128.807 1.78918L128.924 1.7938C129.369 1.81154 129.679 2.00273 129.873 2.3774C130.078 2.77211 130.181 3.44436 130.181 4.37409V19.6546C130.181 20.5658 130.08 21.2257 129.88 21.6151C129.691 21.9851 129.377 22.1616 128.922 22.1886L128.807 22.1956V23.0158H134.918V22.1956L134.8 22.1909C134.345 22.174 134.032 21.989 133.843 21.6282C133.643 21.2504 133.542 20.5859 133.542 19.6546V4.37332C133.542 3.42354 133.646 2.74667 133.85 2.36352C134.044 1.9981 134.355 1.81154 134.8 1.7938L134.918 1.78918V0.968144H128.807V1.78918ZM142.044 20.0092V4.37332C142.044 3.41892 142.283 2.77751 142.755 2.46836C143.245 2.14843 144.313 1.98577 145.928 1.98577C148.45 1.98577 150.353 2.82916 151.587 4.49281C152.826 6.16726 153.455 8.75218 153.455 12.1766C153.455 15.7152 152.794 18.2423 151.49 19.6893C150.19 21.1332 147.905 21.8656 144.7 21.8656C143.563 21.8656 142.827 21.7353 142.51 21.4786C142.201 21.2288 142.044 20.7347 142.044 20.0092ZM151.353 2.01583C150.527 1.58951 149.593 1.27574 148.578 1.08147C147.563 0.888739 146.259 0.790831 144.7 0.790831C144.163 0.790831 143.715 0.793915 143.359 0.798541C143.003 0.803937 142.645 0.811646 142.283 0.820897L137.365 0.968144V1.78918L137.484 1.7938C137.928 1.81154 138.24 1.9981 138.434 2.36429C138.637 2.74744 138.741 3.42354 138.741 4.37332V19.6546C138.741 20.5666 138.637 21.2288 138.432 21.622C138.24 21.9959 137.929 22.1848 137.486 22.1925L137.365 22.1956V23.0158H145.46C149.063 23.0158 151.92 22.0599 153.954 20.1757C155.989 18.287 157.022 15.6365 157.022 12.2946C157.022 10.0281 156.51 7.95118 155.499 6.12332C154.488 4.29237 153.092 2.9101 151.353 2.0166V2.01583ZM174.715 17.9717L174.653 18.0603C173.997 18.9854 173.369 19.7109 172.785 20.2189C172.206 20.7223 171.594 21.0854 170.972 21.2951C170.472 21.4493 169.885 21.5626 169.226 21.6297C168.564 21.6983 167.431 21.733 165.859 21.733C164.26 21.733 163.687 21.5642 163.487 21.4231C163.298 21.2882 163.072 20.8865 163.072 19.7433V11.2369H166.489C168.079 11.2369 169.141 11.381 169.646 11.6647C170.144 11.9438 170.523 12.458 170.775 13.1927L170.803 13.2767H171.54V7.84171H170.833L170.804 7.92497C170.553 8.6666 170.105 9.1916 169.472 9.48532C168.823 9.78599 167.676 9.94017 166.065 9.94017H163.072V3.85757C163.072 2.95328 163.23 2.63488 163.362 2.52773C163.501 2.41517 163.937 2.28103 165.23 2.28103H166.152C168.684 2.28103 170.402 2.51539 171.258 2.9764C172.103 3.43125 172.753 4.26925 173.189 5.46649L173.223 5.56054L174.066 5.44182L173.696 0.968144H158.394V1.78918L158.512 1.7938C158.957 1.81154 159.267 1.9981 159.462 2.36429C159.665 2.74821 159.768 3.42431 159.768 4.37332V19.6546C159.768 20.5658 159.665 21.2304 159.461 21.6251C159.267 21.9982 158.957 22.1848 158.515 22.1933L158.394 22.1956V23.0158H174.216L175.527 18.4103L174.715 17.9717Z" fill="black"/>
</svg>
