<svg width="176" height="43" viewBox="0 0 176 43" fill="none" xmlns="http://www.w3.org/2000/svg">
<g clip-path="url(#clip0_14_170)">
<path d="M90.6487 24.1808L84.0093 7.53833L77.4083 24.0703C79.1257 24.0164 80.8631 23.9853 82.6388 23.9853C85.3798 23.9853 88.047 24.0519 90.6487 24.1808ZM145.751 41.0544C131.523 34.8861 115.522 30.318 96.7194 28.7759L102.445 42.6376H98.0131L92.3618 28.4768C89.2042 28.3025 85.9656 28.2047 82.6459 28.2047C80.2915 28.2047 77.9798 28.2529 75.7051 28.345L69.9998 42.6376H65.5655L71.3703 28.5746C51.4266 29.8786 34.4414 34.5899 19.522 41.0501V40.1771C29.4796 34.6366 39.3264 30.5008 49.9565 27.7993V19.291L37.9843 0.968918H42.4328L51.9327 16.1927L61.4368 0.968918H65.8797L53.9103 19.291L53.9074 26.8667C59.9909 25.55 66.3502 24.6798 73.1503 24.2673L83.017 0.362293H84.9945L94.9394 24.4572C101.614 24.9887 107.871 25.9681 113.869 27.4011V4.15654H104.088V0.968918H127.697V4.15654H117.92V28.4485C127.565 31.1344 136.614 35.0406 145.751 40.1856V41.0544ZM161.569 0.968918H137.963V4.15654H147.743V32.8862H151.791V4.15654H161.569V0.968918ZM26.0533 32.8862L22.0057 32.8905V17.1409H4.54993V32.8862H0.502319V0.968918H4.54993V13.9561H22.0057V0.968918H26.0533V32.8862Z" fill="#4B77A9"/>
<path d="M172.248 3.4543C172.055 3.34091 171.742 3.28563 171.313 3.28563H170.653V4.88299H171.351C171.682 4.88299 171.924 4.84755 172.09 4.78377C172.39 4.65763 172.547 4.43085 172.547 4.09636C172.547 3.77745 172.444 3.56485 172.248 3.4543ZM171.415 2.76405C171.957 2.76405 172.358 2.81649 172.615 2.91854C173.068 3.10847 173.294 3.48265 173.294 4.03258C173.294 4.42235 173.152 4.7129 172.868 4.89999C172.714 4.99779 172.507 5.06441 172.23 5.10835C172.581 5.1622 172.828 5.30536 172.99 5.5378C173.144 5.77025 173.225 5.99844 173.225 6.22096V6.53987C173.225 6.64333 173.229 6.75247 173.236 6.86444C173.243 6.98066 173.255 7.05578 173.275 7.09689L173.302 7.15075H172.581C172.576 7.13515 172.572 7.1224 172.568 7.10822C172.564 7.09263 172.564 7.07279 172.559 7.05578L172.541 6.91405V6.56538C172.541 6.0608 172.397 5.72631 172.124 5.56331C171.957 5.47119 171.675 5.42158 171.261 5.42158H170.653V7.15075H169.874V2.76405H171.415ZM169.058 2.53727C168.385 3.21051 168.053 4.02407 168.053 4.9737C168.053 5.93041 168.384 6.7468 169.052 7.42146C169.722 8.09895 170.533 8.43345 171.49 8.43345C172.446 8.43345 173.259 8.09895 173.933 7.42146C174.6 6.7468 174.935 5.93041 174.935 4.9737C174.935 4.02407 174.6 3.21051 173.933 2.53727C173.255 1.86687 172.441 1.52954 171.49 1.52954C170.539 1.52954 169.732 1.86687 169.058 2.53727ZM174.325 7.80131C173.546 8.58794 172.602 8.97913 171.49 8.97913C170.38 8.97913 169.436 8.58794 168.654 7.80131C167.881 7.01751 167.494 6.07639 167.494 4.96944C167.494 3.871 167.885 2.92988 168.668 2.15034C169.447 1.37221 170.388 0.982441 171.49 0.982441C172.602 0.982441 173.546 1.37221 174.325 2.15034C175.111 2.92279 175.502 3.86675 175.502 4.96944C175.502 6.07214 175.111 7.0161 174.325 7.80131Z" fill="#4B77A9"/>
</g>
<defs>
<clipPath id="clip0_14_170">
<rect width="175" height="42.2753" fill="white" transform="translate(0.502319 0.362305)"/>
</clipPath>
</defs>
</svg>
