<svg width="175" height="40" viewBox="0 0 175 40" fill="none" xmlns="http://www.w3.org/2000/svg">
<path fill-rule="evenodd" clip-rule="evenodd" d="M158.965 9.97024C165.812 5.61626 174.408 4.78027 174.408 4.78027C174.408 4.78027 165.288 15.1472 163.058 19.9368C162.37 22.0262 163.811 23.7258 163.811 23.7258C163.811 23.7258 159.816 19.2517 158.965 9.97024Z" fill="#1BA0E2"/>
<path fill-rule="evenodd" clip-rule="evenodd" d="M161.93 8.33423C160.926 8.81495 159.928 9.35781 158.965 9.9703C159.398 14.6913 160.644 18.1685 161.765 20.4459C162.364 21.5056 162.935 22.3923 163.364 23.0259C163.146 22.6035 162.922 22.0145 162.879 21.3276C162.298 19.1054 161.766 15.1784 161.93 8.33423Z" fill="#0D7FCC"/>
<path fill-rule="evenodd" clip-rule="evenodd" d="M152.826 14.0206C152.826 14.0206 152.375 12.4374 152.22 11.9808C151.802 10.7508 151.374 9.50022 151.374 7.36588C151.374 4.43916 156.359 1.31656 159.397 0.335938C158.573 10.9875 159.77 14.2477 160.873 17.7882C163.482 26.5001 169.442 27.7599 170.03 28.3504C168.511 28.0221 169.378 28.7309 169.378 28.7309C169.378 28.7309 166.952 27.0431 162.068 25.6613C157.183 24.2796 153.372 24.0681 151.041 22.744C149.246 21.3953 149.188 20.2966 148.335 19.5591C145.532 17.1365 138.475 16.1177 138.475 16.1177L144.546 17.1069C144.546 17.1069 145.381 17.1069 146.366 16.7531C146.578 16.7254 147.254 15.9546 148.718 16.4419C149.32 16.6403 149.151 16.8561 150.876 17.3412C153.062 17.956 152.826 14.0206 152.826 14.0206Z" fill="#1BA0E2"/>
<path fill-rule="evenodd" clip-rule="evenodd" d="M2.95599 32.4039C2.95599 38.6322 7.70373 39.3693 10.096 39.3693C10.8321 39.3693 11.3473 39.2956 11.3473 39.2956V36.1261C11.3473 36.1261 11.0161 36.1999 10.5008 36.1999C9.13909 36.1999 6.52599 35.7208 6.52599 31.9985V23.7064H11.0161V20.8318H6.52599V15.4512H3.0664V20.8318H0.526917V23.7064H2.95599V32.4039ZM14.6363 39.2219H18.2063V31.5931C18.2063 30.4507 18.3167 29.3082 18.6479 28.2394C19.4944 25.4754 21.5923 23.8539 23.8741 23.8539C24.4262 23.8539 24.9046 23.9644 24.9046 23.9644V20.4265C24.9046 20.4265 24.463 20.3527 23.9845 20.3527C21.1138 20.3527 18.9424 22.4903 18.0959 25.2174H18.0223C18.0223 25.2174 18.0959 24.5909 18.0959 23.817V20.5739H14.6363V39.2219ZM26.1029 33.9886C26.1029 37.7109 29.2313 39.6641 32.4332 39.6641C36.8865 39.6641 38.3955 35.9787 38.3955 35.9787H38.4691C38.4691 35.9787 38.3955 36.6052 38.3955 37.4529V39.2219H41.7079V27.4287C41.7079 22.7114 39.058 20.1316 34.3471 20.1316C30.0778 20.1316 27.3911 22.3428 27.3911 22.3428L28.8632 24.9595C28.8632 24.9595 31.1819 23.1536 34.0526 23.1536C36.4081 23.1536 38.1379 24.1855 38.1379 27.2444V27.5761H37.3282C34.1998 27.5761 26.1029 27.8341 26.1029 33.9886ZM29.7097 33.8044C29.7097 30.4507 34.5679 30.2664 37.2546 30.2664H38.1747V30.8561C38.1747 33.6201 36.2241 36.7895 33.2061 36.7895C30.8875 36.7895 29.7097 35.3154 29.7097 33.8044ZM50.7383 39.2219H54.8604L61.7427 20.5739H57.9887L53.4618 33.1778C53.0938 34.2097 52.8361 35.7208 52.7993 35.7208H52.7257C52.6889 35.7208 52.4681 34.2097 52.1 33.1778L47.5731 20.5739H43.7823L50.7383 39.2219ZM62.6834 29.8979C62.6834 35.4259 66.695 39.6641 72.5469 39.6641C77.0002 39.6641 79.7605 37.0106 79.7605 37.0106L78.2883 34.394C78.2883 34.394 75.9697 36.5684 72.7677 36.5684C69.4554 36.5684 66.5478 34.5046 66.3638 30.4138H79.9445C79.9445 30.4138 80.0549 29.3451 80.0549 28.866C80.0549 24.0381 77.2578 20.1316 71.9948 20.1316C66.695 20.1316 62.6834 23.9644 62.6834 29.8979ZM66.4742 27.7235C66.9895 24.6646 69.1977 22.9694 71.9212 22.9694C74.3135 22.9694 76.3009 24.5172 76.4113 27.7235H66.4742ZM83.3511 34.136C83.3511 38.8165 86.3322 39.3693 88.3564 39.3693C88.9821 39.3693 89.5342 39.2956 89.5342 39.2956V36.1261C89.5342 36.1261 89.2397 36.163 88.9085 36.163C87.8044 36.163 86.9211 35.7576 86.9211 33.5095V13.2031H83.3511V34.136ZM91.1373 29.861C91.1373 35.5365 95.6274 39.6641 101.185 39.6641C106.742 39.6641 111.232 35.5365 111.232 29.861C111.232 24.2224 106.742 20.1316 101.185 20.1316C95.6274 20.1316 91.1373 24.2224 91.1373 29.861ZM94.7809 29.861C94.7809 25.9914 97.6884 23.2273 101.185 23.2273C104.718 23.2273 107.589 25.9914 107.589 29.861C107.589 33.7675 104.718 36.5684 101.185 36.5684C97.6884 36.5684 94.7809 33.7675 94.7809 29.861ZM114.742 39.2219H118.312V30.4507H120.999L126.593 39.2219H130.752L123.87 28.866V28.7923L130.053 20.5739H126.004L120.925 27.4287H118.312V13.2031H114.742V39.2219ZM131.766 33.9886C131.766 37.7109 134.895 39.6641 138.097 39.6641C142.55 39.6641 144.059 35.9787 144.059 35.9787H144.132C144.132 35.9787 144.059 36.6052 144.059 37.4529V39.2219H147.371V27.4287C147.371 22.7114 144.721 20.1316 140.01 20.1316C135.741 20.1316 133.054 22.3428 133.054 22.3428L134.527 24.9595C134.527 24.9595 136.845 23.1536 139.716 23.1536C142.071 23.1536 143.801 24.1855 143.801 27.2444V27.5761H142.991C139.863 27.5761 131.766 27.8341 131.766 33.9886ZM135.373 33.8044C135.373 30.4507 140.231 30.2664 142.918 30.2664H143.838V30.8561C143.838 33.6201 141.887 36.7895 138.869 36.7895C136.551 36.7895 135.373 35.3154 135.373 33.8044Z" fill="#434343"/>
</svg>
